<svg xmlns="http://www.w3.org/2000/svg" xmlns:xlink="http://www.w3.org/1999/xlink" viewBox="0 0 640 480"><defs><style>.cls-1{isolation:isolate;}.cls-2{mix-blend-mode:multiply;}.cls-3{fill:#fff;opacity:0;}.cls-4{fill:#fdfdfd;opacity:0.05;}.cls-5{fill:#fbfbfa;opacity:0.1;}.cls-6{fill:#f8f8f8;opacity:0.14;}.cls-7{fill:#f6f6f6;opacity:0.19;}.cls-8{fill:#f4f4f4;opacity:0.24;}.cls-9{fill:#f2f2f1;opacity:0.29;}.cls-10{fill:#efefef;opacity:0.33;}.cls-11{fill:#ededed;opacity:0.38;}.cls-12{fill:#ebebeb;opacity:0.43;}.cls-13{fill:#e9e9e8;opacity:0.48;}.cls-14{fill:#e6e6e6;opacity:0.52;}.cls-15{fill:#e4e4e4;opacity:0.57;}.cls-16{fill:#e2e2e2;opacity:0.62;}.cls-17{fill:#e0e0df;opacity:0.67;}.cls-18{fill:#ddd;opacity:0.71;}.cls-19{fill:#dbdbdb;opacity:0.76;}.cls-20{fill:#d9d9d9;opacity:0.81;}.cls-21{fill:#d7d7d6;opacity:0.86;}.cls-22{fill:#d5d4d4;opacity:0.9;}.cls-23{fill:#d2d2d2;opacity:0.95;}.cls-24{fill:#bfbfbf;}.cls-25{fill:url(#linear-gradient);}.cls-26{fill:url(#radial-gradient);}.cls-27{fill:url(#linear-gradient-2);}.cls-28{fill:#f17621;}.cls-29{fill:#28292e;}.cls-30{fill:url(#linear-gradient-3);}.cls-31{fill:url(#linear-gradient-4);}.cls-32{opacity:0.91;mix-blend-mode:hard-light;fill:url(#linear-gradient-5);}.cls-33{fill:#394855;mix-blend-mode:soft-light;}</style><linearGradient id="linear-gradient" x1="202.67" y1="228" x2="273.88" y2="228" gradientUnits="userSpaceOnUse"><stop offset="0" stop-color="#708192"/><stop offset="0.5" stop-color="#e0e2e4"/><stop offset="0.76" stop-color="#a3adb7"/><stop offset="1" stop-color="#708192"/></linearGradient><radialGradient id="radial-gradient" cx="240.99" cy="261.23" r="111.6" gradientTransform="translate(7.56 468.99) rotate(-90)" gradientUnits="userSpaceOnUse"><stop offset="0" stop-color="#fed54a"/><stop offset="0.22" stop-color="#fed047"/><stop offset="0.46" stop-color="#fec33e"/><stop offset="0.71" stop-color="#fead2f"/><stop offset="0.97" stop-color="#fe8e1a"/><stop offset="1" stop-color="#fe8a17"/></radialGradient><linearGradient id="linear-gradient-2" x1="442.73" y1="-198.99" x2="442.73" y2="-365.17" gradientTransform="translate(-660.55 216.68) scale(2.3 0.2)" gradientUnits="userSpaceOnUse"><stop offset="0" stop-color="#b35014"/><stop offset="0.04" stop-color="#b85518"/><stop offset="0.29" stop-color="#d77031"/><stop offset="0.54" stop-color="#ed8343"/><stop offset="0.78" stop-color="#fa8f4d"/><stop offset="1" stop-color="#ff9351"/></linearGradient><linearGradient id="linear-gradient-3" x1="225.81" y1="175.81" x2="254.58" y2="147.04" gradientUnits="userSpaceOnUse"><stop offset="0" stop-color="#b4cbe3"/><stop offset="0.14" stop-color="#fff"/><stop offset="0.16" stop-color="#f3f4f6"/><stop offset="0.21" stop-color="#d2d8de"/><stop offset="0.27" stop-color="#9eaab7"/><stop offset="0.29" stop-color="#8a99a8"/><stop offset="0.32" stop-color="#96a4b1"/><stop offset="0.39" stop-color="#b7c0c9"/><stop offset="0.47" stop-color="#ebeef0"/><stop offset="0.5" stop-color="#fff"/><stop offset="0.63" stop-color="#bdc5ce"/><stop offset="0.73" stop-color="#8a99a8"/><stop offset="0.87" stop-color="#d4dfe8"/><stop offset="1" stop-color="#b4cbe3"/></linearGradient><linearGradient id="linear-gradient-4" x1="240.2" y1="179.06" x2="240.2" y2="143.79" gradientUnits="userSpaceOnUse"><stop offset="0.01" stop-color="#940000"/><stop offset="0.46" stop-color="#c30200"/><stop offset="1" stop-color="#ff0500"/></linearGradient><linearGradient id="linear-gradient-5" x1="237.62" y1="164" x2="252.04" y2="149.58" gradientUnits="userSpaceOnUse"><stop offset="0.01" stop-color="#e95b00"/><stop offset="0.18" stop-color="#ee7d35"/><stop offset="0.48" stop-color="#f5b48a"/><stop offset="0.73" stop-color="#fadcc9"/><stop offset="0.91" stop-color="#fef5f0"/><stop offset="1" stop-color="#fff"/></linearGradient></defs><g class="cls-1"><g id="Layer_1" data-name="Layer 1"><g class="cls-2"><path class="cls-3" d="M489.86,328.7c0,19.51-155.31,25.51-258.38,19-61.15-3.86-81.34-11.82-81.34-19s20.19-15.14,81.34-19C334.55,303.19,489.86,309.19,489.86,328.7Z"/><path class="cls-4" d="M479.46,328.7c0,18.66-148.7,24.44-247.81,18.24-59.19-3.68-79.2-11.33-79.2-18.24s20-14.56,79.2-18.24C330.76,304.26,479.46,310,479.46,328.7Z"/><path class="cls-5" d="M469.06,328.7c0,17.81-142.08,23.37-237.23,17.48-57.25-3.5-77.06-10.83-77.06-17.48s19.81-14,77.06-17.48C327,305.33,469.06,310.89,469.06,328.7Z"/><path class="cls-6" d="M458.65,328.7c0,17-135.45,22.29-226.65,16.71-55.29-3.31-74.92-10.32-74.92-16.71S176.71,315.3,232,312C323.2,306.41,458.65,311.74,458.65,328.7Z"/><path class="cls-7" d="M448.25,328.7c0,16.11-128.83,21.22-216.08,15.95-53.33-3.13-72.77-9.83-72.77-15.95s19.44-12.82,72.77-15.95C319.42,307.48,448.25,312.59,448.25,328.7Z"/><path class="cls-8" d="M437.85,328.7c0,15.26-122.21,20.15-205.51,15.19-51.37-2.95-70.63-9.33-70.63-15.19s19.26-12.24,70.63-15.19C315.64,308.55,437.85,313.44,437.85,328.7Z"/><path class="cls-9" d="M427.45,328.7c0,14.4-115.59,19.07-194.94,14.42C183.09,340.36,164,334.3,164,328.7s19.07-11.66,68.49-14.42C311.86,309.63,427.45,314.3,427.45,328.7Z"/><path class="cls-10" d="M417,328.7c0,13.55-109,18-184.36,13.66-47.46-2.58-66.34-8.33-66.34-13.66s18.88-11.08,66.34-13.66C308.08,310.7,417,315.15,417,328.7Z"/><path class="cls-11" d="M406.64,328.7c0,12.7-102.34,16.93-173.79,12.9-45.5-2.4-64.2-7.83-64.2-12.9s18.7-10.5,64.2-12.9C304.3,311.77,406.64,316,406.64,328.7Z"/><path class="cls-12" d="M396.24,328.7c0,11.85-95.72,15.7-163.22,12.13-43.54-2.3-62.05-7.32-62.05-12.13s18.51-9.92,62.05-12.13C300.52,312.85,396.24,316.85,396.24,328.7Z"/><path class="cls-13" d="M385.84,328.7c0,11-89.1,14.62-152.65,11.37-41.58-2.13-59.91-6.83-59.91-11.37s18.33-9.35,59.91-11.37C296.73,313.92,385.84,317.7,385.84,328.7Z"/><path class="cls-14" d="M375.43,328.7c0,10.15-82.47,13.54-142.06,10.61-39.63-2-57.77-6.33-57.77-10.61s18.13-8.77,57.77-10.61C293,315,375.43,318.55,375.43,328.7Z"/><path class="cls-15" d="M365,328.7c0,9.3-75.85,12.46-131.49,9.84-37.67-1.77-55.63-5.83-55.63-9.84s18-8.19,55.63-9.84C289.17,316.07,365,319.4,365,328.7Z"/><path class="cls-16" d="M354.63,328.7c0,8.45-69.23,11.38-120.92,9.08-35.72-1.59-53.48-5.33-53.48-9.08s17.76-7.61,53.48-9.08C285.39,317.14,354.63,320.25,354.63,328.7Z"/><path class="cls-17" d="M344.23,328.7c0,7.6-62.61,10.31-110.35,8.32-33.76-1.42-51.34-4.83-51.34-8.32s17.58-7,51.34-8.32C281.61,318.21,344.23,321.1,344.23,328.7Z"/><path class="cls-18" d="M333.82,328.7c0,6.75-56,9.24-99.77,7.55-31.8-1.23-49.2-4.33-49.2-7.55s17.39-6.45,49.2-7.55C277.83,319.29,333.82,322,333.82,328.7Z"/><path class="cls-19" d="M323.42,328.7c0,5.9-49.37,8.18-89.2,6.79-29.85-1-47.05-3.83-47.05-6.79s17.2-5.87,47.05-6.79C274.05,320.36,323.42,322.8,323.42,328.7Z"/><path class="cls-20" d="M313,328.7c0,5-42.75,7.12-78.63,6-27.89-.85-44.91-3.33-44.91-6s17-5.29,44.91-6C270.27,321.43,313,323.66,313,328.7Z"/><path class="cls-21" d="M302.62,328.7c0,4.19-36.13,6.07-68.06,5.26-25.93-.65-42.76-2.83-42.76-5.26s16.83-4.71,42.76-5.26C266.49,322.51,302.62,324.51,302.62,328.7Z"/><path class="cls-22" d="M292.21,328.7c0,3.34-29.5,5-57.48,4.5-24-.45-40.62-2.33-40.62-4.5s16.64-4.13,40.62-4.5C262.7,323.58,292.21,325.36,292.21,328.7Z"/><path class="cls-23" d="M281.81,328.7c0,2.49-22.89,4-46.91,3.73-22-.23-38.47-1.83-38.47-3.73s16.45-3.55,38.47-3.73C258.92,324.66,281.81,326.21,281.81,328.7Z"/><ellipse class="cls-24" cx="235.08" cy="328.7" rx="36.33" ry="2.97"/></g><path class="cls-25" d="M203.9,129.77h68.74a1.23,1.23,0,0,1,1.23,1.23V326.23a0,0,0,0,1,0,0H202.67a0,0,0,0,1,0,0V131A1.23,1.23,0,0,1,203.9,129.77Z"/><rect class="cls-26" x="142.76" y="200.53" width="191.03" height="60.36" transform="translate(468.99 -7.56) rotate(90)"/><rect class="cls-27" x="273.88" y="145.15" width="163.45" height="32.55"/><rect class="cls-28" x="273.88" y="150.06" width="163.45" height="22.72"/><polygon class="cls-29" points="296.42 172.78 273.88 172.78 286.33 150.06 308.87 150.06 296.42 172.78"/><polygon class="cls-29" points="346.49 172.78 323.95 172.78 336.4 150.06 358.94 150.06 346.49 172.78"/><polygon class="cls-29" points="396.57 172.78 374.03 172.78 386.48 150.06 409.02 150.06 396.57 172.78"/><polygon class="cls-29" points="436.55 150.06 424.1 172.78 437.33 172.78 437.33 150.06 436.55 150.06"/><circle class="cls-30" cx="240.2" cy="161.42" r="20.35"/><path class="cls-31" d="M240.2,179.06a17.64,17.64,0,1,1,17.63-17.64A17.66,17.66,0,0,1,240.2,179.06Z"/><path class="cls-32" d="M240.52,144.81a16.13,16.13,0,0,0-7.84,2,18.05,18.05,0,0,0-.48,4.11,18.5,18.5,0,0,0,18.48,18.48,18.05,18.05,0,0,0,4.11-.48,16.28,16.28,0,0,0-14.27-24.13Z"/><rect class="cls-33" x="208.09" y="135.2" width="60.36" height="3.17"/></g></g></svg>